<svg width="161" height="93" viewBox="0 0 161 93" fill="none" xmlns="http://www.w3.org/2000/svg">
<path d="M4.464 70.768C6.36267 70.768 7.824 71.264 8.848 72.256C9.88267 73.248 10.4 74.6293 10.4 76.4C10.4 78.1707 9.88267 79.5467 8.848 80.528C7.824 81.5093 6.36267 82 4.464 82H1.312V70.768H4.464ZM4.464 81.392C6.16 81.392 7.45067 80.9547 8.336 80.08C9.22133 79.1947 9.664 77.968 9.664 76.4C9.664 74.8213 9.22133 73.5893 8.336 72.704C7.45067 71.8187 6.16 71.376 4.464 71.376H2.032V81.392H4.464ZM12.1296 77.648C12.1296 76.752 12.3056 75.968 12.6576 75.296C13.0203 74.624 13.5163 74.1067 14.1456 73.744C14.7856 73.3813 15.511 73.2 16.3216 73.2C17.239 73.2 18.0176 73.424 18.6576 73.872C19.2976 74.32 19.7456 74.8907 20.0016 75.584V73.312H20.7216V82H20.0016V79.712C19.7456 80.416 19.2923 80.9973 18.6416 81.456C18.0016 81.904 17.2283 82.128 16.3216 82.128C15.511 82.128 14.7856 81.9467 14.1456 81.584C13.5163 81.2107 13.0203 80.688 12.6576 80.016C12.3056 79.3333 12.1296 78.544 12.1296 77.648ZM20.0016 77.648C20.0016 76.8907 19.8416 76.224 19.5216 75.648C19.2123 75.0613 18.7856 74.6133 18.2416 74.304C17.6976 73.984 17.0896 73.824 16.4176 73.824C15.7136 73.824 15.095 73.9787 14.5616 74.288C14.0283 74.5867 13.6123 75.024 13.3136 75.6C13.015 76.176 12.8656 76.8587 12.8656 77.648C12.8656 78.4373 13.015 79.12 13.3136 79.696C13.6123 80.272 14.0283 80.7147 14.5616 81.024C15.1056 81.3333 15.7243 81.488 16.4176 81.488C17.0896 81.488 17.6976 81.3333 18.2416 81.024C18.7963 80.704 19.2283 80.256 19.5376 79.68C19.847 79.0933 20.0016 78.416 20.0016 77.648ZM24.4153 73.936V79.68C24.4153 80.32 24.5326 80.7627 24.7673 81.008C25.0019 81.2427 25.4179 81.36 26.0153 81.36H26.9913V82H25.9033C25.1459 82 24.5859 81.824 24.2233 81.472C23.8713 81.1093 23.6953 80.512 23.6953 79.68V73.936H22.3833V73.312H23.6953V71.104H24.4153V73.312H26.9913V73.936H24.4153ZM28.4421 77.648C28.4421 76.752 28.6181 75.968 28.9701 75.296C29.3328 74.624 29.8288 74.1067 30.4581 73.744C31.0981 73.3813 31.8235 73.2 32.6341 73.2C33.5515 73.2 34.3301 73.424 34.9701 73.872C35.6101 74.32 36.0581 74.8907 36.3141 75.584V73.312H37.0341V82H36.3141V79.712C36.0581 80.416 35.6048 80.9973 34.9541 81.456C34.3141 81.904 33.5408 82.128 32.6341 82.128C31.8235 82.128 31.0981 81.9467 30.4581 81.584C29.8288 81.2107 29.3328 80.688 28.9701 80.016C28.6181 79.3333 28.4421 78.544 28.4421 77.648ZM36.3141 77.648C36.3141 76.8907 36.1541 76.224 35.8341 75.648C35.5248 75.0613 35.0981 74.6133 34.5541 74.304C34.0101 73.984 33.4021 73.824 32.7301 73.824C32.0261 73.824 31.4075 73.9787 30.8741 74.288C30.3408 74.5867 29.9248 75.024 29.6261 75.6C29.3275 76.176 29.1781 76.8587 29.1781 77.648C29.1781 78.4373 29.3275 79.12 29.6261 79.696C29.9248 80.272 30.3408 80.7147 30.8741 81.024C31.4181 81.3333 32.0368 81.488 32.7301 81.488C33.4021 81.488 34.0101 81.3333 34.5541 81.024C35.1088 80.704 35.5408 80.256 35.8501 79.68C36.1595 79.0933 36.3141 78.416 36.3141 77.648ZM40.3758 75.6C40.6424 74.896 41.0958 74.32 41.7358 73.872C42.3758 73.424 43.1491 73.2 44.0558 73.2C44.8664 73.2 45.5864 73.3813 46.2158 73.744C46.8558 74.1067 47.3518 74.624 47.7038 75.296C48.0664 75.968 48.2478 76.752 48.2478 77.648C48.2478 78.544 48.0664 79.3333 47.7038 80.016C47.3518 80.688 46.8558 81.2107 46.2158 81.584C45.5864 81.9467 44.8664 82.128 44.0558 82.128C43.1491 82.128 42.3704 81.904 41.7198 81.456C41.0798 81.008 40.6318 80.432 40.3758 79.728V82H39.6558V70.16H40.3758V75.6ZM47.5118 77.648C47.5118 76.8587 47.3624 76.176 47.0638 75.6C46.7651 75.024 46.3438 74.5867 45.7998 74.288C45.2664 73.9787 44.6478 73.824 43.9438 73.824C43.2718 73.824 42.6638 73.984 42.1198 74.304C41.5758 74.6133 41.1491 75.0613 40.8398 75.648C40.5304 76.224 40.3758 76.8907 40.3758 77.648C40.3758 78.416 40.5304 79.0933 40.8398 79.68C41.1491 80.256 41.5758 80.704 42.1198 81.024C42.6638 81.3333 43.2718 81.488 43.9438 81.488C44.6478 81.488 45.2664 81.3333 45.7998 81.024C46.3438 80.7147 46.7651 80.272 47.0638 79.696C47.3624 79.12 47.5118 78.4373 47.5118 77.648ZM49.9734 77.648C49.9734 76.752 50.1494 75.968 50.5014 75.296C50.864 74.624 51.36 74.1067 51.9894 73.744C52.6294 73.3813 53.3547 73.2 54.1654 73.2C55.0827 73.2 55.8614 73.424 56.5014 73.872C57.1414 74.32 57.5894 74.8907 57.8454 75.584V73.312H58.5654V82H57.8454V79.712C57.5894 80.416 57.136 80.9973 56.4854 81.456C55.8454 81.904 55.072 82.128 54.1654 82.128C53.3547 82.128 52.6294 81.9467 51.9894 81.584C51.36 81.2107 50.864 80.688 50.5014 80.016C50.1494 79.3333 49.9734 78.544 49.9734 77.648ZM57.8454 77.648C57.8454 76.8907 57.6854 76.224 57.3654 75.648C57.056 75.0613 56.6294 74.6133 56.0854 74.304C55.5414 73.984 54.9334 73.824 54.2614 73.824C53.5574 73.824 52.9387 73.9787 52.4054 74.288C51.872 74.5867 51.456 75.024 51.1574 75.6C50.8587 76.176 50.7094 76.8587 50.7094 77.648C50.7094 78.4373 50.8587 79.12 51.1574 79.696C51.456 80.272 51.872 80.7147 52.4054 81.024C52.9494 81.3333 53.568 81.488 54.2614 81.488C54.9334 81.488 55.5414 81.3333 56.0854 81.024C56.64 80.704 57.072 80.256 57.3814 79.68C57.6907 79.0933 57.8454 78.416 57.8454 77.648ZM64.083 82.128C63.1123 82.128 62.3177 81.9147 61.699 81.488C61.091 81.0613 60.7497 80.4533 60.675 79.664H61.411C61.4643 80.2293 61.7203 80.6773 62.179 81.008C62.6483 81.3387 63.283 81.504 64.083 81.504C64.7443 81.504 65.267 81.3387 65.651 81.008C66.0457 80.6667 66.243 80.2507 66.243 79.76C66.243 79.4187 66.1363 79.1413 65.923 78.928C65.7203 78.704 65.4643 78.5333 65.155 78.416C64.8457 78.2987 64.4243 78.1707 63.891 78.032C63.251 77.8613 62.7337 77.696 62.339 77.536C61.9443 77.3653 61.6083 77.1147 61.331 76.784C61.0537 76.4533 60.915 76.0107 60.915 75.456C60.915 75.0507 61.0377 74.6773 61.283 74.336C61.5283 73.984 61.8697 73.7067 62.307 73.504C62.7443 73.3013 63.2403 73.2 63.795 73.2C64.7017 73.2 65.4323 73.4293 65.987 73.888C66.5523 74.336 66.8563 74.96 66.899 75.76H66.179C66.147 75.184 65.923 74.7147 65.507 74.352C65.091 73.9893 64.515 73.808 63.779 73.808C63.1603 73.808 62.6483 73.968 62.243 74.288C61.8377 74.608 61.635 74.9973 61.635 75.456C61.635 75.8613 61.747 76.192 61.971 76.448C62.2057 76.6933 62.4883 76.8853 62.819 77.024C63.1603 77.152 63.6083 77.2907 64.163 77.44C64.771 77.6 65.2563 77.76 65.619 77.92C65.9923 78.0693 66.307 78.2933 66.563 78.592C66.819 78.88 66.947 79.2693 66.947 79.76C66.947 80.208 66.8243 80.6133 66.579 80.976C66.3337 81.3387 65.9923 81.6213 65.555 81.824C65.1177 82.0267 64.627 82.128 64.083 82.128ZM76.9641 77.072C76.9641 77.456 76.9535 77.744 76.9321 77.936H69.4281C69.4495 78.7147 69.6201 79.3707 69.9401 79.904C70.2601 80.4373 70.6815 80.8373 71.2041 81.104C71.7268 81.3707 72.2975 81.504 72.9161 81.504C73.7695 81.504 74.4841 81.296 75.0601 80.88C75.6361 80.4533 75.9988 79.8773 76.1481 79.152H76.9001C76.7295 80.0373 76.2921 80.7573 75.5881 81.312C74.8841 81.856 73.9935 82.128 72.9161 82.128C72.1055 82.128 71.3801 81.9467 70.7401 81.584C70.1001 81.2213 69.5988 80.704 69.2361 80.032C68.8735 79.3493 68.6921 78.5547 68.6921 77.648C68.6921 76.7413 68.8681 75.952 69.2201 75.28C69.5828 74.608 70.0841 74.096 70.7241 73.744C71.3641 73.3813 72.0948 73.2 72.9161 73.2C73.7481 73.2 74.4681 73.3813 75.0761 73.744C75.6948 74.096 76.1641 74.5707 76.4841 75.168C76.8041 75.7547 76.9641 76.3893 76.9641 77.072ZM76.2441 77.344C76.2761 76.576 76.1375 75.9253 75.8281 75.392C75.5295 74.8587 75.1188 74.464 74.5961 74.208C74.0735 73.9413 73.5081 73.808 72.9001 73.808C72.2921 73.808 71.7268 73.9413 71.2041 74.208C70.6921 74.464 70.2708 74.8587 69.9401 75.392C69.6201 75.9253 69.4495 76.576 69.4281 77.344H76.2441ZM83.0601 73.136C84.0948 73.136 84.9375 73.456 85.5881 74.096C86.2388 74.7253 86.5641 75.664 86.5641 76.912V82H85.8601V76.96C85.8601 75.9253 85.5988 75.136 85.0761 74.592C84.5535 74.0373 83.8441 73.76 82.9481 73.76C82.0095 73.76 81.2575 74.0587 80.6921 74.656C80.1375 75.2533 79.8601 76.1387 79.8601 77.312V82H79.1401V73.312H79.8601V75.152C80.1055 74.5013 80.5108 74.0053 81.0761 73.664C81.6521 73.312 82.3135 73.136 83.0601 73.136ZM95.8929 73.312L90.8369 86.08H90.1009L91.7169 82L88.0689 73.312H88.8529L92.1169 81.2L95.1569 73.312H95.8929ZM97.0515 77.648C97.0515 76.752 97.2275 75.968 97.5795 75.296C97.9422 74.624 98.4382 74.1067 99.0675 73.744C99.7075 73.3813 100.433 73.2 101.244 73.2C102.161 73.2 102.94 73.424 103.58 73.872C104.22 74.32 104.668 74.8907 104.924 75.584V73.312H105.644V82H104.924V79.712C104.668 80.416 104.214 80.9973 103.564 81.456C102.924 81.904 102.15 82.128 101.244 82.128C100.433 82.128 99.7075 81.9467 99.0675 81.584C98.4382 81.2107 97.9422 80.688 97.5795 80.016C97.2275 79.3333 97.0515 78.544 97.0515 77.648ZM104.924 77.648C104.924 76.8907 104.764 76.224 104.444 75.648C104.134 75.0613 103.708 74.6133 103.164 74.304C102.62 73.984 102.012 73.824 101.34 73.824C100.636 73.824 100.017 73.9787 99.4835 74.288C98.9502 74.5867 98.5342 75.024 98.2355 75.6C97.9368 76.176 97.7875 76.8587 97.7875 77.648C97.7875 78.4373 97.9368 79.12 98.2355 79.696C98.5342 80.272 98.9502 80.7147 99.4835 81.024C100.028 81.3333 100.646 81.488 101.34 81.488C102.012 81.488 102.62 81.3333 103.164 81.024C103.718 80.704 104.15 80.256 104.46 79.68C104.769 79.0933 104.924 78.416 104.924 77.648ZM119.149 79.12H113.821L112.749 82H111.965L116.093 71.024H116.893L121.005 82H120.221L119.149 79.12ZM118.925 78.512L116.493 71.968L114.045 78.512H118.925ZM122.364 77.648C122.364 76.752 122.54 75.968 122.892 75.296C123.255 74.624 123.751 74.1067 124.38 73.744C125.02 73.3813 125.745 73.2 126.556 73.2C127.441 73.2 128.209 73.424 128.86 73.872C129.511 74.3093 129.969 74.88 130.236 75.584V70.16H130.956V82H130.236V79.696C129.98 80.4107 129.532 80.9973 128.892 81.456C128.252 81.904 127.473 82.128 126.556 82.128C125.745 82.128 125.02 81.9467 124.38 81.584C123.751 81.2107 123.255 80.688 122.892 80.016C122.54 79.3333 122.364 78.544 122.364 77.648ZM130.236 77.648C130.236 76.8907 130.076 76.224 129.756 75.648C129.447 75.0613 129.02 74.6133 128.476 74.304C127.932 73.984 127.324 73.824 126.652 73.824C125.948 73.824 125.329 73.9787 124.796 74.288C124.263 74.5867 123.847 75.024 123.548 75.6C123.249 76.176 123.1 76.8587 123.1 77.648C123.1 78.4373 123.249 79.12 123.548 79.696C123.847 80.272 124.263 80.7147 124.796 81.024C125.34 81.3333 125.959 81.488 126.652 81.488C127.324 81.488 127.932 81.3333 128.476 81.024C129.031 80.704 129.463 80.256 129.772 79.68C130.081 79.0933 130.236 78.416 130.236 77.648ZM133.13 77.648C133.13 76.752 133.306 75.968 133.658 75.296C134.02 74.624 134.516 74.1067 135.146 73.744C135.786 73.3813 136.511 73.2 137.322 73.2C138.239 73.2 139.018 73.424 139.658 73.872C140.298 74.32 140.746 74.8907 141.002 75.584V73.312H141.722V82H141.002V79.712C140.746 80.416 140.292 80.9973 139.642 81.456C139.002 81.904 138.228 82.128 137.322 82.128C136.511 82.128 135.786 81.9467 135.146 81.584C134.516 81.2107 134.02 80.688 133.658 80.016C133.306 79.3333 133.13 78.544 133.13 77.648ZM141.002 77.648C141.002 76.8907 140.842 76.224 140.522 75.648C140.212 75.0613 139.786 74.6133 139.242 74.304C138.698 73.984 138.09 73.824 137.418 73.824C136.714 73.824 136.095 73.9787 135.562 74.288C135.028 74.5867 134.612 75.024 134.314 75.6C134.015 76.176 133.866 76.8587 133.866 77.648C133.866 78.4373 134.015 79.12 134.314 79.696C134.612 80.272 135.028 80.7147 135.562 81.024C136.106 81.3333 136.724 81.488 137.418 81.488C138.09 81.488 138.698 81.3333 139.242 81.024C139.796 80.704 140.228 80.256 140.538 79.68C140.847 79.0933 141.002 78.416 141.002 77.648ZM154.615 73.136C155.607 73.136 156.418 73.456 157.047 74.096C157.677 74.7253 157.991 75.664 157.991 76.912V82H157.287V76.96C157.287 75.9253 157.037 75.136 156.535 74.592C156.045 74.0373 155.367 73.76 154.503 73.76C153.607 73.76 152.887 74.0693 152.343 74.688C151.799 75.3067 151.527 76.2027 151.527 77.376V82H150.823V76.96C150.823 75.9253 150.573 75.136 150.071 74.592C149.581 74.0373 148.903 73.76 148.039 73.76C147.143 73.76 146.423 74.0693 145.879 74.688C145.335 75.3067 145.063 76.2027 145.063 77.376V82H144.343V73.312H145.063V75.2C145.309 74.5173 145.703 74.0053 146.247 73.664C146.802 73.312 147.437 73.136 148.151 73.136C148.941 73.136 149.618 73.344 150.183 73.76C150.759 74.1653 151.154 74.768 151.367 75.568C151.57 74.768 151.965 74.1653 152.551 73.76C153.138 73.344 153.826 73.136 154.615 73.136Z" fill="#F0F0F4"/>
<path d="M63.7673 64H46.7972C35.5591 64 26.4486 54.8896 26.4486 43.6514C26.4486 32.4132 35.5591 23.3028 46.7972 23.3028C48.015 23.3028 49.206 23.4162 50.3652 23.6212C53.7775 10.0497 66.0577 0 80.6881 0C85.6989 0 90.4318 1.18228 94.6286 3.27884L61.0026 40.0696H78.0674L63.7673 64Z" fill="url(#paint0_linear_5_7)"/>
<path d="M111.128 16.8235C110.238 16.8235 109.359 16.8771 108.494 16.9737C105.903 11.9429 101.988 7.70556 97.2108 4.72214L81.8817 31.6365H98.2435L67.9287 63.9992H111.956V63.978C124.599 63.5412 134.716 53.1606 134.716 40.411C134.716 27.3842 124.156 16.8235 111.128 16.8235Z" fill="url(#paint1_linear_5_7)"/>
<g opacity="0.5">
<path d="M111.891 20.4425C122.246 20.6413 130.926 29.6203 130.5 39.9872C130.418 37.5509 129.859 35.1484 128.863 32.9583C125.981 26.4175 119.018 22.0056 111.891 22.3122V20.4425Z" fill="#C42072"/>
</g>
<defs>
<linearGradient id="paint0_linear_5_7" x1="34.5437" y1="60.1755" x2="85.8901" y2="8.82921" gradientUnits="userSpaceOnUse">
<stop stop-color="#3E60A4"/>
<stop offset="0.289" stop-color="#4773B0"/>
<stop offset="0.8734" stop-color="#5FA4CE"/>
<stop offset="0.9453" stop-color="#62ABD2"/>
</linearGradient>
<linearGradient id="paint1_linear_5_7" x1="87.1167" y1="56.2971" x2="131.074" y2="12.3403" gradientUnits="userSpaceOnUse">
<stop stop-color="#742A86"/>
<stop offset="0.2892" stop-color="#872881"/>
<stop offset="0.8737" stop-color="#B82175"/>
<stop offset="1" stop-color="#C42072"/>
</linearGradient>
</defs>
</svg>
